<svg width="704" height="357" viewBox="0 0 704 357" fill="none" xmlns="http://www.w3.org/2000/svg">
<path d="M691.974 111.301C690.565 107.309 685.816 97.7198 681.422 89.9922C677.027 82.2647 671.988 72.8905 670.223 69.1606C668.459 65.4309 666.022 57.8143 664.808 52.235C663.595 46.6557 661.852 39.09 660.936 35.4223C660.02 31.7546 657.5 26.0195 655.336 22.6776C653.172 19.3357 649.635 15.0551 647.475 13.1651C645.316 11.2751 642.296 9.41422 640.764 9.02982C639.232 8.64539 636.736 8.76787 635.217 9.30197C633.698 9.83603 632.3 11.078 632.11 12.062C631.921 13.046 633.709 16.4806 636.084 19.6946C638.459 22.9086 640.402 25.7903 640.402 26.0983C640.402 26.4063 637.892 24.7402 634.824 22.3958C631.757 20.0513 626.235 16.6355 622.553 14.805C616.855 11.9721 614.721 11.486 608.211 11.5381C603.576 11.5751 598.778 12.3192 596.029 13.4271C593.535 14.4324 590.502 16.5137 589.288 18.0522C587.082 20.8496 587.082 20.8496 599.135 21.4895C608.703 21.9975 613.233 22.8209 621.112 25.4847C626.57 27.3301 633.143 30.0746 635.719 31.5836C638.294 33.0926 640.402 34.4706 640.402 34.6459C640.402 34.8213 637.451 34.0465 633.844 32.9242C630.238 31.802 623.109 30.4518 618.003 29.9236C612.385 29.3426 603.182 29.3558 594.7 29.9569C581.207 30.9133 580.365 31.1152 572.238 35.3426C567.477 37.8185 562.661 41.219 561.198 43.137C559.763 45.0169 558.602 47.9808 558.602 49.7607C558.602 51.5325 559.277 53.5416 560.101 54.2256C560.925 54.9095 563.196 55.7174 565.147 56.021C567.105 56.3257 570.748 55.8372 573.278 54.9303C575.799 54.0269 579.09 52.3223 580.59 51.1424C582.091 49.9625 587.198 47.7572 591.941 46.2417C597.915 44.3329 603.828 43.3299 611.187 42.9772C618.855 42.6098 623.141 42.9033 626.591 44.0329C630.408 45.2823 630.811 45.6189 628.589 45.7027C627.059 45.7604 621.641 46.534 616.55 47.4217C611.458 48.3093 603.48 50.5055 598.82 52.3022C594.16 54.0988 586.85 57.9069 582.577 60.7645C578.303 63.6221 571.876 68.7823 568.295 72.2315C563.877 76.4868 560.738 80.7383 558.529 85.4565C556.739 89.2809 555.043 94.948 554.76 98.0499C554.477 101.152 554.696 104.352 555.247 105.161C555.908 106.132 557.195 106.395 559.028 105.935C560.825 105.484 563.818 102.524 567.497 97.5605C570.627 93.3379 575.658 87.5791 578.677 84.7632C581.697 81.9473 586.184 78.7609 588.648 77.6824C591.112 76.6038 596.131 75.1386 599.802 74.4263C603.473 73.7139 609.025 73.3942 612.14 73.7156C615.255 74.037 620.263 75.3574 623.268 76.6499C626.273 77.9423 630.233 80.7097 632.069 82.7998C633.904 84.8899 636.608 89.2242 638.077 92.4317C639.837 96.2749 640.913 100.847 641.234 105.84C641.56 110.92 641.167 115.314 640.041 119.174C639.118 122.34 636.935 127.177 635.19 129.923C633.444 132.669 630.036 136.226 627.614 137.828C624.47 139.908 621.495 140.857 617.2 141.148C613.022 141.432 609.081 140.869 604.282 139.302C600.484 138.063 593.792 136.775 589.41 136.442C584.53 136.071 579.599 136.336 576.688 137.127C573.759 137.922 570.597 139.833 568.454 142.105C566.541 144.133 564.976 146.453 564.976 147.262C564.976 148.107 566.443 148.948 568.429 149.241C570.327 149.522 578.813 150.245 587.285 150.849C600.13 151.764 605.06 152.65 616.959 156.185C624.807 158.516 634.829 160.969 639.228 161.635C643.627 162.302 664.077 169.249 680.767 157.349C701.874 144.797 693.383 115.293 691.974 111.301ZM643.626 170.815C636.087 170.352 629.151 168.97 616.499 165.342C602.142 161.225 597.191 160.306 584.629 159.425C576.449 158.851 567.947 158.098 565.736 157.753C563.524 157.407 560.298 155.932 558.565 154.475C556.656 152.869 555.415 150.802 555.415 149.23C555.415 147.803 556.09 145.02 556.915 143.045C557.74 141.071 560.312 137.559 562.63 135.242C565.236 132.637 568.976 130.32 572.427 129.174C576.843 127.708 580.256 127.436 588.756 127.875C595.561 128.226 602.365 129.32 607.31 130.859C614.507 133.099 615.458 133.17 619.482 131.765C622.34 130.767 625.027 128.691 627.264 125.75C629.383 122.964 631.166 118.931 631.957 115.129C632.919 110.513 632.942 107.427 632.053 102.629C631.364 98.9167 629.645 94.5258 627.934 92.1084C626.319 89.8264 623.803 87.0824 622.342 86.0107C620.881 84.939 617.217 83.5997 614.199 83.0345C610.618 82.364 606.421 82.3757 602.119 83.0684C598.493 83.6522 593.792 85.028 591.672 86.1258C589.551 87.2236 585.385 90.6688 582.414 93.7818C579.442 96.8949 575.237 101.926 573.069 104.961C570.901 107.997 567.537 111.463 565.594 112.664C563.651 113.864 560.2 114.919 557.925 115.008C555.65 115.098 552.72 114.504 551.414 113.688C550.108 112.873 548.265 110.574 547.318 108.578C546.045 105.896 545.723 102.969 546.083 97.3559C546.461 91.4808 547.432 87.9731 550.376 81.8574C552.469 77.5097 556.033 71.9493 558.296 69.5008C562.411 65.049 562.41 65.049 558.319 63.2044C556.069 62.1899 553.341 60.1147 552.257 58.5928C551.173 57.071 549.952 54.0455 549.544 51.8695C548.953 48.7212 549.392 46.7063 551.693 42.004C553.538 38.2339 556.177 34.9331 558.984 32.8853C561.403 31.12 566.495 28.1001 570.298 26.1743C576.014 23.2804 577.458 21.9989 578.619 18.7884C579.392 16.652 581.735 13.1939 583.825 11.1038C585.916 9.01376 589.655 6.40643 592.135 5.30975C594.615 4.21309 600.155 3.01996 604.447 2.65835C610.038 2.18722 614.162 2.491 618.996 3.73055C625.741 5.46031 625.741 5.46037 628.904 2.80004C630.643 1.33686 633.344 0.0890624 634.906 0.0271418C636.468 -0.0346961 639.173 0.0126473 640.918 0.133428C642.663 0.253794 645.824 1.23652 647.943 2.31721C650.062 3.39788 654.085 6.815 656.883 9.91078C659.681 13.0065 663.583 18.918 665.554 23.0473C667.642 27.4213 670.227 35.6931 671.746 42.8639C673.18 49.6337 675.311 57.7254 676.481 60.8454C677.651 63.9654 681.538 71.7753 685.118 78.2007C688.698 84.6262 693.419 93.4678 695.61 97.8487C697.801 102.23 700.336 108.204 701.243 111.124C702.15 114.045 703.27 118.496 703.544 121.038C705.956 143.438 698.335 153.386 691.785 160.035C671.861 172.104 672.261 172.574 643.626 170.815Z" fill="#FD7B05" style="fill:#FD7B05;fill:color(display-p3 0.9922 0.4824 0.0196);fill-opacity:1;"/>
<path d="M531.063 314.546V161.843H561.227V314.546H531.063ZM551.985 154.143H529.908L547.621 114.235H575.474L551.985 154.143Z" fill="#FD7B05" style="fill:#FD7B05;fill:color(display-p3 0.9922 0.4824 0.0196);fill-opacity:1;"/>
<path d="M370.297 194.483H401.414H428.936H434.329L432.946 224.21H424.234C416.95 224.21 411.372 225.362 407.499 227.667C403.443 230.155 401.414 233.566 401.414 237.898V314.772H370.297V194.483Z" fill="#FD7B05" style="fill:#FD7B05;fill:color(display-p3 0.9922 0.4824 0.0196);fill-opacity:1;"/>
<path d="M438.242 283.55C438.242 278.757 438.887 274.379 440.178 270.415C441.469 266.359 443.497 262.718 446.263 259.492C449.029 256.266 452.44 253.547 456.497 251.335C460.646 249.03 465.533 247.049 471.157 245.389C474.015 244.56 477.058 243.868 480.285 243.315C483.512 242.67 486.923 242.117 490.519 241.656V232.531C490.519 231.609 490.335 230.595 489.966 229.489C489.689 228.291 489.32 227.369 488.859 226.724C488.306 225.986 487.707 225.341 487.061 224.788C486.416 224.143 485.54 223.636 484.434 223.267C483.327 222.991 482.313 222.852 481.391 222.852C480.561 222.852 446.322 222.666 443.559 222.666C443.559 213.723 443.591 198.234 443.591 193.426C493.845 193.426 504.257 196.122 511.264 202.113C518.179 208.104 521.636 216.446 521.636 227.139V314.797H490.519C483.439 314.812 478.732 315.062 471.282 315.062C465.165 315.062 454.938 315.019 448.752 310.373C446.448 308.622 444.511 306.363 442.944 303.598C441.377 300.741 440.224 297.699 439.486 294.473C439.025 292.814 438.703 291.062 438.518 289.219C438.334 287.375 438.242 285.486 438.242 283.55ZM470.051 278.849C470.051 280.232 470.189 281.522 470.465 282.72C470.834 283.826 471.249 284.656 471.71 285.209C472.909 287.053 474.522 288.205 476.551 288.666C477.657 289.034 478.717 289.219 479.732 289.219C482.866 289.219 486.462 288.067 490.519 285.762V260.183C487.753 261.105 485.263 262.027 483.051 262.949C480.838 263.871 478.902 264.977 477.242 266.267C475.767 267.373 474.43 268.571 473.231 269.862C472.125 271.152 471.341 272.581 470.88 274.148C470.327 275.807 470.051 277.374 470.051 278.849Z" fill="#FD7B05" style="fill:#FD7B05;fill:color(display-p3 0.9922 0.4824 0.0196);fill-opacity:1;"/>
<path d="M186.801 193.102H217.919C228.436 193.102 231.702 193.101 244.057 193.101C251.064 193.101 256.596 194.944 260.653 198.631C264.802 202.411 267.522 207.941 268.813 215.223C269.089 217.066 269.32 219.048 269.504 221.168C269.689 223.196 269.781 225.362 269.781 227.667V281.174C269.781 285.691 269.412 289.931 268.674 293.895C268.029 297.766 266.969 301.038 265.494 303.711C264.018 306.477 262.267 308.781 260.238 310.624C258.21 312.376 255.72 313.758 252.77 314.772C249.912 315.694 246.639 316.155 242.951 316.155C238.802 316.155 235.32 316.136 232.025 316.136C221.863 316.136 226.314 315.976 217.919 315.976V356.251H186.801V193.102ZM216.536 235.409V273.846C216.536 276.888 217.135 279.469 218.333 281.589C218.702 282.327 219.348 283.156 220.27 284.078C221.284 284.907 222.436 285.507 223.727 285.875C224.834 286.244 226.124 286.428 227.6 286.428C228.89 286.428 230.135 286.29 231.334 286.014C232.532 285.645 233.639 285.046 234.653 284.216C235.483 283.479 236.174 282.695 236.727 281.866C237.373 280.944 237.88 279.7 238.249 278.133C238.525 276.658 238.663 275.229 238.663 273.846V235.409C238.663 232.368 238.064 229.741 236.866 227.528C236.497 226.883 235.805 226.146 234.791 225.316C233.869 224.394 232.809 223.749 231.61 223.38C230.412 223.012 229.075 222.827 227.6 222.827C226.309 222.827 225.064 223.012 223.865 223.38C222.667 223.657 221.607 224.21 220.685 225.04C219.763 225.777 218.979 226.607 218.333 227.528C217.78 228.358 217.365 229.556 217.089 231.123C216.72 232.598 216.536 234.027 216.536 235.409Z" fill="#FD7B05" style="fill:#FD7B05;fill:color(display-p3 0.9922 0.4824 0.0196);fill-opacity:1;"/>
<path d="M178.316 254.213V264.306H94.2303C94.7835 267.072 95.6593 269.652 96.8579 272.049C98.1487 274.353 99.5778 276.335 101.145 277.994C102.897 279.838 104.741 281.359 106.677 282.557C108.613 283.755 110.964 284.677 113.73 285.322C114.929 285.691 116.174 285.968 117.465 286.152C118.848 286.336 120.277 286.428 121.752 286.428C126.177 286.428 130.234 285.691 133.922 284.216C137.61 282.741 140.607 280.667 142.912 277.994C143.465 277.349 143.972 276.658 144.433 275.92C144.894 275.183 145.309 274.446 145.678 273.708H177.348C176.057 279.423 174.167 284.401 171.678 288.641C169.188 292.881 166.422 296.429 163.38 299.287C159.876 302.79 155.912 305.785 151.486 308.274C147.153 310.763 142.404 312.698 137.241 314.081C134.752 314.726 132.17 315.233 129.497 315.602C126.823 315.971 124.103 316.155 121.337 316.155C114.238 316.155 107.784 315.141 101.975 313.113C96.2586 310.993 91.1415 308.182 86.6238 304.679C76.7584 297.121 69.9817 287.028 66.2938 274.4C64.4498 268.132 63.5278 261.403 63.5278 254.213C63.5278 247.3 64.4959 240.663 66.4321 234.303C68.3683 227.943 71.0881 222.274 74.5917 217.297C78.1875 212.227 82.3826 207.895 87.1769 204.3C92.0635 200.705 97.4111 197.94 103.22 196.004C109.12 194.069 115.252 193.101 121.613 193.101C127.791 193.101 133.83 194.161 139.731 196.281C145.631 198.309 150.841 201.166 155.358 204.853C160.061 208.725 164.117 213.149 167.529 218.126C171.032 223.104 173.706 228.727 175.55 234.995C177.394 241.078 178.316 247.484 178.316 254.213ZM94.7834 243.567H147.752C146.277 238.682 143.787 234.488 140.284 230.985C136.873 227.574 132.862 225.178 128.252 223.795C127.053 223.519 125.855 223.288 124.656 223.104C123.457 222.92 122.213 222.827 120.922 222.827C116.22 222.827 111.702 224.072 107.369 226.561C105.801 227.482 104.142 228.773 102.39 230.432C100.73 232.091 99.209 234.165 97.8261 236.654C96.5352 238.958 95.521 241.262 94.7834 243.567Z" fill="#FD7B05" style="fill:#FD7B05;fill:color(display-p3 0.9922 0.4824 0.0196);fill-opacity:1;"/>
<path d="M0 194.483H31.1173H58.6389H64.0326L62.6496 224.21H53.9368C46.653 224.21 41.0749 225.362 37.2025 227.667C33.1457 230.155 31.1173 233.566 31.1173 237.898V314.772H0V194.483Z" fill="#FD7B05" style="fill:#FD7B05;fill:color(display-p3 0.9922 0.4824 0.0196);fill-opacity:1;"/>
<path d="M278.267 283.55C278.267 278.757 278.912 274.379 280.203 270.415C281.494 266.359 283.522 262.718 286.288 259.492C289.054 256.266 292.465 253.547 296.522 251.335C300.671 249.03 305.558 247.049 311.182 245.389C314.04 244.56 317.083 243.868 320.31 243.315C323.537 242.67 326.948 242.117 330.544 241.656V232.531C330.544 231.609 330.359 230.595 329.991 229.489C329.714 228.291 329.345 227.369 328.884 226.724C328.331 225.986 327.732 225.341 327.086 224.788C326.441 224.143 325.565 223.636 324.459 223.267C323.352 222.991 322.338 222.852 321.416 222.852C320.586 222.852 286.347 222.666 283.584 222.666C283.584 213.723 283.616 198.234 283.616 193.426C333.869 193.426 344.282 196.122 351.289 202.113C358.204 208.104 361.661 216.446 361.661 227.139V314.797H330.544C323.464 314.812 318.757 315.062 311.307 315.062C305.19 315.062 294.963 315.019 288.777 310.373C286.472 308.622 284.536 306.363 282.969 303.598C281.401 300.741 280.249 297.699 279.511 294.473C279.05 292.814 278.728 291.062 278.543 289.219C278.359 287.375 278.267 285.486 278.267 283.55ZM310.075 278.849C310.075 280.232 310.214 281.522 310.49 282.72C310.859 283.826 311.274 284.656 311.735 285.209C312.934 287.053 314.547 288.205 316.576 288.666C317.682 289.034 318.742 289.219 319.756 289.219C322.891 289.219 326.487 288.067 330.544 285.762V260.183C327.778 261.105 325.288 262.027 323.076 262.949C320.863 263.871 318.927 264.977 317.267 266.267C315.792 267.373 314.455 268.571 313.256 269.862C312.15 271.152 311.366 272.581 310.905 274.148C310.352 275.807 310.075 277.374 310.075 278.849Z" fill="#FD7B05" style="fill:#FD7B05;fill:color(display-p3 0.9922 0.4824 0.0196);fill-opacity:1;"/>
</svg>
